<svg xmlns="http://www.w3.org/2000/svg" width="16" height="16" viewBox="0 0 16 16"><title>DiscourseCopilot</title><defs><linearGradient id="dc16l-bub" gradientUnits="userSpaceOnUse" x1="1" y1="3" x2="13" y2="15"><stop offset="0" stop-color="#3A5BE0"/><stop offset="1" stop-color="#8E2DB5"/></linearGradient><linearGradient id="dc16l-star" gradientUnits="userSpaceOnUse" x1="9" y1="0" x2="15.75" y2="7.25"><stop offset="0" stop-color="#3D5CEB"/><stop offset="1" stop-color="#9B2FC6"/></linearGradient></defs><g><path d="M4.179 15.07Q2.447 15.254 0.395 15.878Q0.156 15.951 0 15.868Q-0.156 15.785 -0.228 15.545Q-0.266 15.423 -0.239 15.298Q0.251 12.952 0.289 10.924Q-1.261 6.022 3.198 3.396Q6.484 1.46 9.269 2.979Q9.083 3.026 8.885 3.06Q8.392 3.142 8.31 3.635Q8.252 3.98 8.396 4.182Q8.54 4.383 8.885 4.44Q11.392 4.858 11.81 7.365Q11.892 7.858 12.385 7.94Q12.73 7.998 12.932 7.854Q13.006 7.801 13.061 7.72Q13.616 10.113 11.854 12.677Q8.935 16.925 4.179 15.07Z" fill="#4A6BFF" opacity="0.55"/><path d="M5.179 15.32Q3.447 15.504 1.395 16.128Q1.156 16.201 1 16.118Q0.844 16.035 0.772 15.795Q0.734 15.673 0.761 15.548Q1.251 13.202 1.289 11.174Q-0.261 6.272 4.198 3.646Q7.062 1.958 9.547 2.896Q9.236 3.001 8.885 3.06Q8.392 3.142 8.31 3.635Q8.252 3.98 8.396 4.182Q8.54 4.383 8.885 4.44Q11.392 4.858 11.81 7.365Q11.892 7.858 12.385 7.94Q12.73 7.998 12.932 7.854Q13.133 7.71 13.19 7.365Q13.277 6.844 13.444 6.413Q15.197 9.518 12.854 12.927Q9.935 17.175 5.179 15.32Z" fill="#C13AE0" opacity="0.55"/><path d="M4.679 15.07Q2.947 15.254 0.895 15.878Q0.656 15.951 0.5 15.868Q0.344 15.785 0.272 15.545Q0.234 15.423 0.261 15.298Q0.751 12.952 0.789 10.924Q-0.761 6.022 3.698 3.396Q6.876 1.524 9.586 2.883Q9.258 2.997 8.885 3.06Q8.392 3.142 8.31 3.635Q8.252 3.98 8.396 4.182Q8.54 4.383 8.885 4.44Q11.392 4.858 11.81 7.365Q11.892 7.858 12.385 7.94Q12.73 7.998 12.932 7.854Q13.133 7.71 13.19 7.365Q13.232 7.113 13.293 6.882Q14.427 9.66 12.354 12.677Q9.435 16.925 4.679 15.07Z" fill="url(#dc16l-bub)"/><path d="M3.65 6H9.35Q9.5 6 9.5 6.15V6.85Q9.5 7 9.35 7H3.65Q3.5 7 3.5 6.85V6.15Q3.5 6 3.65 6ZM3.65 8H9.35Q9.5 8 9.5 8.15V8.85Q9.5 9 9.35 9H3.65Q3.5 9 3.5 8.85V8.15Q3.5 8 3.65 8ZM3.65 10H7.35Q7.5 10 7.5 10.15V10.85Q7.5 11 7.35 11H3.65Q3.5 11 3.5 10.85V10.15Q3.5 10 3.65 10Z" fill="#7FE3FF"/><path d="M4.65 6.25H10.35Q10.5 6.25 10.5 6.4V7.1Q10.5 7.25 10.35 7.25H4.65Q4.5 7.25 4.5 7.1V6.4Q4.5 6.25 4.65 6.25ZM4.65 8.25H10.35Q10.5 8.25 10.5 8.4V9.1Q10.5 9.25 10.35 9.25H4.65Q4.5 9.25 4.5 9.1V8.4Q4.5 8.25 4.65 8.25ZM4.65 10.25H8.35Q8.5 10.25 8.5 10.4V11.1Q8.5 11.25 8.35 11.25H4.65Q4.5 11.25 4.5 11.1V10.4Q4.5 10.25 4.65 10.25Z" fill="#FF7BD5"/><path d="M4.15 6H9.85Q10 6 10 6.15V6.85Q10 7 9.85 7H4.15Q4 7 4 6.85V6.15Q4 6 4.15 6ZM4.15 8H9.85Q10 8 10 8.15V8.85Q10 9 9.85 9H4.15Q4 9 4 8.85V8.15Q4 8 4.15 8ZM4.15 10H7.85Q8 10 8 10.15V10.85Q8 11 7.85 11H4.15Q4 11 4 10.85V10.15Q4 10 4.15 10Z" fill="#FFFFFF"/><path d="M12 0Q12.5 3.25 15.25 3.75Q13.696 4.033 12.86 5.114Q12.529 4.665 12.116 4.222Q11.355 3.407 10.555 2.865Q11.707 1.905 12 0Z" fill="#4A6BFF" opacity="0.7"/><path d="M13 0.25Q13.5 3.5 16.25 4Q14.261 4.362 13.449 6.031Q12.948 5.114 12.116 4.222Q11.673 3.747 11.216 3.365Q12.666 2.421 13 0.25Z" fill="#C13AE0" opacity="0.7"/><path d="M12.5 0Q13 3.25 15.75 3.75Q13 4.25 12.5 7.25Q12 4.25 9 3.75Q12 3.25 12.5 0Z" fill="url(#dc16l-star)"/></g></svg>
